HIERARCHY
ROOT Hips
{
	OFFSET 56.877701 -32.693596 43.373703
	CHANNELS 6 Xposition Yposition Zposition Zrotation Xrotation Yrotation
	JOINT Chest
	{
		OFFSET -0.779999 1.005800 5.403099
		CHANNELS 6 Xposition Yposition Zposition Zrotation Xrotation Yrotation
		JOINT Chest2
		{
			OFFSET 0.000000 0.000000 4.236801
			CHANNELS 6 Xposition Yposition Zposition Zrotation Xrotation Yrotation
			JOINT Neck
			{
				OFFSET 0.000000 0.000000 9.874401
				CHANNELS 6 Xposition Yposition Zposition Zrotation Xrotation Yrotation
				JOINT Head
				{
					OFFSET 0.000000 0.000002 2.173893
					CHANNELS 6 Xposition Yposition Zposition Zrotation Xrotation Yrotation
					End Site
					{
						OFFSET 0.000000 0.000000 6.508102
					}
				}
			}
			JOINT LeftCollar
			{
				OFFSET 2.681599 -0.377600 5.432499
				CHANNELS 6 Xposition Yposition Zposition Zrotation Xrotation Yrotation
				JOINT LeftShoulder
				{
					OFFSET 5.161499 0.000000 0.000000
					CHANNELS 6 Xposition Yposition Zposition Zrotation Xrotation Yrotation
					JOINT LeftElbow
					{
						OFFSET 0.000000 0.000000 -10.869099
						CHANNELS 6 Xposition Yposition Zposition Zrotation Xrotation Yrotation
						JOINT LeftWrist
						{
							OFFSET 0.000000 0.000000 -13.344799
							CHANNELS 6 Xposition Yposition Zposition Zrotation Xrotation Yrotation
							End Site
							{
								OFFSET 0.000000 0.000000 -2.173901
							}
						}
					}
				}
			}
			JOINT RightCollar
			{
				OFFSET -2.381901 -1.419600 6.136600
				CHANNELS 6 Xposition Yposition Zposition Zrotation Xrotation Yrotation
				JOINT RightShoulder
				{
					OFFSET -4.550499 0.000000 0.000000
					CHANNELS 6 Xposition Yposition Zposition Zrotation Xrotation Yrotation
					JOINT RightElbow
					{
						OFFSET 0.000000 0.000000 -11.106499
						CHANNELS 6 Xposition Yposition Zposition Zrotation Xrotation Yrotation
						JOINT RightWrist
						{
							OFFSET 0.000000 0.000000 -12.874298
							CHANNELS 6 Xposition Yposition Zposition Zrotation Xrotation Yrotation
							End Site
							{
								OFFSET 0.000000 0.000000 -2.173901
							}
						}
					}
				}
			}
		}
	}
	JOINT LeftHip
	{
		OFFSET 2.431900 0.469601 -2.489399
		CHANNELS 6 Xposition Yposition Zposition Zrotation Xrotation Yrotation
		JOINT LeftKnee
		{
			OFFSET 0.000000 -0.000004 -18.200201
			CHANNELS 6 Xposition Yposition Zposition Zrotation Xrotation Yrotation
			JOINT LeftAnkle
			{
				OFFSET 0.000000 0.000000 -16.279900
				CHANNELS 6 Xposition Yposition Zposition Zrotation Xrotation Yrotation
				End Site
				{
					OFFSET 0.000000 -8.394100 0.000000
				}
			}
		}
	}
	JOINT RightHip
	{
		OFFSET -1.987999 -0.073502 -2.713001
		CHANNELS 6 Xposition Yposition Zposition Zrotation Xrotation Yrotation
		JOINT RightKnee
		{
			OFFSET 0.000000 -0.000004 -19.547802
			CHANNELS 6 Xposition Yposition Zposition Zrotation Xrotation Yrotation
			JOINT RightAnkle
			{
				OFFSET 0.000000 0.000000 -14.881199
				CHANNELS 6 Xposition Yposition Zposition Zrotation Xrotation Yrotation
				End Site
				{
					OFFSET 0.000000 -7.922699 0.000000
				}
			}
		}
	}
}
MOTION
Frames: 4
Frame Time: 0.041667
50.016201 -40.682297 42.048203 1792.169402 14.442676 -3.565180 -0.779998 1.005801 5.403101 9.231319 -15.042091 4.943085 -0.000001 0.000001 4.236796 -1.970975 -1.694057 0.372579 -0.000005 -0.000002 9.874393 64.796502 -1.358611 -12.733847 0.000000 0.000004 2.173886 5.420477 1.172078 10.883920 2.681593 -0.377601 5.432500 8.280912 -4.900952 2.703757 5.161506 0.000011 -0.000002 216.260550 -95.409840 139.526599 -0.000003 0.000012 -10.869102 72.240862 -10.986669 28.441473 -0.000004 -0.000004 -13.344791 3.940092 -9.926508 -36.902928 -2.381912 -1.419605 6.136598 0.566057 -25.901611 50.753114 -4.550512 0.000005 0.000008 -801.929669 -477.477324 -369.939301 -0.000005 -0.000009 -11.106498 -114.545442 -58.428314 -115.400349 0.000002 -0.000009 -12.874300 -784.229972 -8.724511 -11.478337 2.431902 0.469601 -2.489400 30.084292 -32.300603 17.501837 0.000003 -0.000003 -18.200201 -68.913078 40.700827 38.616315 -0.000007 -0.000000 -16.279896 27.789846 19.490232 -6.185860 -1.987997 -0.073497 -2.712998 -94.878882 -44.529432 -59.269103 0.000002 -0.000007 -19.547794 -1106.743199 130.319285 388.710164 0.000003 0.000008 -14.881198 528.997004 126.537150 180.381375
50.013100 -40.694595 42.056599 1792.207760 14.369647 -3.537251 -0.779994 1.005800 5.403096 9.181482 -15.001937 4.880982 0.000002 -0.000002 4.236808 -1.994225 -1.695033 0.366862 -0.000006 -0.000004 9.874393 64.952305 -1.459176 -12.853547 -0.000001 0.000002 2.173895 5.295253 1.193147 10.975667 2.681599 -0.377604 5.432498 8.352057 -4.981391 2.496493 5.161501 -0.000004 0.000005 216.992036 -95.535195 140.261828 0.000001 0.000000 -10.869093 72.417053 -10.874734 28.406330 -0.000001 -0.000004 -13.344805 3.784858 -9.820870 -36.887861 -2.381917 -1.419603 6.136598 0.491817 -26.017389 50.648694 -4.550504 -0.000002 0.000013 -801.828145 -477.450714 -369.998943 0.000004 -0.000004 -11.106485 -114.453330 -58.118667 -115.348604 0.000003 -0.000003 -12.874298 -783.904308 -8.723532 -11.504471 2.431901 0.469603 -2.489404 29.841196 -32.193858 17.356621 0.000009 0.000004 -18.200199 -68.880791 40.580083 38.509621 -0.000010 0.000000 -16.279900 27.887720 19.447261 -6.053322 -1.987995 -0.073498 -2.713003 -94.827683 -44.520935 -59.108368 0.000004 -0.000005 -19.547794 -1106.713692 130.353573 388.794722 -0.000003 -0.000001 -14.881198 529.276987 126.557408 179.969078
50.011002 -40.706898 42.065300 1792.223388 14.337443 -3.515627 -0.780004 1.005796 5.403095 9.156181 -14.966591 4.837248 0.000006 -0.000005 4.236797 -2.014221 -1.706066 0.360584 0.000008 0.000011 9.874397 65.072039 -1.594405 -12.898475 -0.000003 0.000013 2.173894 5.183608 1.210035 11.022958 2.681606 -0.377594 5.432505 8.453127 -5.078555 2.288299 5.161509 -0.000003 -0.000003 216.125354 -95.808040 139.410909 0.000005 -0.000006 -10.869101 72.718654 -10.769667 28.371511 0.000002 -0.000003 -13.344791 3.717202 -9.759580 -36.893619 -2.381902 -1.419605 6.136596 0.324646 -26.291251 50.487587 -4.550505 0.000003 0.000010 -801.676624 -477.416016 -370.175571 0.000001 -0.000005 -11.106496 -114.402807 -57.764583 -115.315682 0.000001 0.000007 -12.874298 -783.527937 -8.750440 -11.542167 2.431896 0.469595 -2.489399 29.627513 -32.111383 17.241513 0.000004 -0.000002 -18.200203 -68.842761 40.459155 38.401120 0.000002 -0.000004 -16.279900 27.983229 19.401902 -5.901908 -1.987999 -0.073509 -2.713004 -94.776982 -44.528151 -58.998013 -0.000004 -0.000004 -19.547810 -1106.697518 130.380429 388.875755 0.000002 0.000004 -14.881195 529.569701 126.586983 179.531891
50.009701 -40.718895 42.074406 1792.217050 14.353415 -3.503088 -0.780001 1.005809 5.403094 9.155976 -14.942651 4.816337 -0.000006 -0.000005 4.236798 -2.032285 -1.732204 0.351816 0.000005 0.000006 9.874403 65.168037 -1.758845 -12.884815 0.000003 0.000013 2.173902 5.092283 1.226998 11.014623 2.681601 -0.377597 5.432496 8.592078 -5.200011 2.109252 5.161510 -0.000005 0.000003 213.896554 -96.227837 137.224333 -0.000000 -0.000005 -10.869093 73.120003 -10.713551 28.362144 -0.000002 0.000000 -13.344818 3.763376 -9.666298 -36.889012 -2.381902 -1.419601 6.136600 0.100964 -26.618331 50.259216 -4.550507 -0.000007 0.000014 -801.549364 -477.405470 -370.441566 -0.000007 -0.000004 -11.106503 -114.488369 -57.398581 -115.339875 -0.000002 -0.000004 -12.874296 -783.133371 -8.746333 -11.578778 2.431900 0.469606 -2.489406 29.458111 -32.061362 17.167469 0.000003 0.000002 -18.200201 -68.783331 40.354014 38.288343 0.000003 0.000000 -16.279898 28.068681 19.360461 -5.768485 -1.987995 -0.073490 -2.713008 -94.738439 -44.550305 -58.952428 -0.000001 -0.000006 -19.547792 -1106.690306 130.411807 388.944002 -0.000005 0.000006 -14.881197 529.819960 126.630095 179.154769
